<mxfile host="app.diagrams.net" modified="2024-03-06T01:37:38.221Z" agent="Mozilla/5.0 (Windows NT 10.0; Win64; x64) AppleWebKit/537.36 (KHTML, like Gecko) Chrome/122.0.0.0 Safari/537.36 Edg/122.0.0.0" version="24.0.1" etag="U4PW0cViBjPOJgX3vMK7" type="github">
  <diagram name="第 1 页" id="gxyxRUU0kacvFPGi7QaY">
    <mxGraphModel>
      <root>
        <mxCell id="0" />
        <mxCell id="1" parent="0" />
      </root>
    </mxGraphModel>
  </diagram>
</mxfile>
